{"title":"The.Revenant.2015.BRRip.720p.x264.AAC-PRiSTiNE [P2PDL]","uid":14268664,"size":1059167850,"categoryP":"video","categoryS":"movies","magnet":"?xt=urn:btih:ecbee0f939a8a35bdaac9548d3fcc2efcd53d1da&amp;dn=The.Revenant.2015.BRRip.720p.x264.AAC-PRiSTiNE+%5BP2PDL%5D&amp;tr=udp%3A%2F%2Ftracker.leechers-paradise.org%3A6969&amp;tr=udp%3A%2F%2Fzer0day.ch%3A1337&amp;tr=udp%3A%2F%2Fopen.demonii.com%3A1337&amp;tr=udp%3A%2F%2Ftracker.coppersurfer.tk%3A6969&amp;tr=udp%3A%2F%2Fexodus.desync.com%3A6969","seeders":3,"leechers":2,"uploader":"VYTOP2PDL","files":7,"time":1460281221,"description":"____    ____ ____    ____ .___________.  ______   \r\n     /   /      /   / |           | /  __    \r\n    /   /      /   /  `---|  |----`|  |  |  | \r\n        /     _    _/       |  |     |  |  |  | \r\n       /        |  |         |  |     |  `--'  | \r\n    __/         |__|         |__|      ______/  \r\n                                                  \r\nPresenting Small Encodes with quality for years!\r\n                                                                                                   \r\n                                                                                                   \r\n\r\n\r\nThe.Revenant.2015.BRRip.720p.x264.AAC-PRiSTiNE\r\n\r\n\r\nGenre: Adventure, Drama, Thriller  \nhttp://www.imdb.com/title/tt1663202/\r\n\r\n\r\nFormat                                   : MPEG-4\r\nFile size                                : 997 MiB\r\nDuration                                 : 2h 36mn\r\nOverall bit rate                         : 891 Kbps\r\n\r\nVideo\r\nFormat                                   : AVC\r\nBit rate                                 : 809 Kbps\r\nWidth                                    : 1 280 pixels\r\nHeight                                   : 536 pixels\r\nDisplay aspect ratio                     : 2.40:1\r\nFrame rate mode                          : Constant\r\nFrame rate                               : 23.976 fps\r\nBit depth                                : 8 bits\r\nStream size                              : 904 MiB (91%)\r\nWriting library                          : x264\r\n\r\nAudio\r\nFormat                                   : AAC\r\nBit rate mode                            : Variable\r\nBit rate                                 : 79.9 Kbps\r\nChannel(s)                               : 2 channels\r\nChannel positions                        : Front: L R\r\nSampling rate                            : 48.0 KHz \r\nStream size                              : 89.3 MiB (9%)\r\nLanguage                                 : English\r\n\r\nSubtitle                                 : Yes (English)\r\n\r\nScreen Shot: (Click on the link to view)\r\n \nhttps://ititli.com/XhW \nhttps://ititli.com/Xhg \nhttps://ititli.com/Xhn \nhttps://ititli.com/Xhw \nhttps://ititli.com/Xh2 \nhttps://ititli.com/Xh6 \nhttps://ititli.com/Xh8 \nhttps://ititli.com/Xhe \nhttps://ititli.com/Xhj \nhttps://ititli.com/Xhk \nhttps://ititli.com/Xho \nhttps://ititli.com/XhG\r\n\r\n----------------------------------------------------------------------------------------------------\r\n\r\n\r\nEncoder Notes: Looking For Early Access To Anything You Can Provide WEBDL, DVDScr, DVDR, BluRay,\r\nDirect Audio, Music Releases and Seedboxes. If You Got anything to offer please contact us.\r\n\r\nSupport us by donating BC - 1FgwdzPsd1y25Gea8wP1qni35uGCtmkRCD\r\n\r\nFind us and join us!","torrent":{"xt":"urn:btih:ecbee0f939a8a35bdaac9548d3fcc2efcd53d1da","amp;dn":"The.Revenant.2015.BRRip.720p.x264.AAC-PRiSTiNE+%5BP2PDL%5D","amp;tr":["udp%3A%2F%2Ftracker.leechers-paradise.org%3A6969","udp%3A%2F%2Fzer0day.ch%3A1337","udp%3A%2F%2Fopen.demonii.com%3A1337","udp%3A%2F%2Ftracker.coppersurfer.tk%3A6969","udp%3A%2F%2Fexodus.desync.com%3A6969"],"infoHash":"ecbee0f939a8a35bdaac9548d3fcc2efcd53d1da","infoHashBuffer":{"type":"Buffer","data":[236,190,224,249,57,168,163,91,218,172,149,72,211,252,194,239,205,83,209,218]},"announce":[],"urlList":[]}}